<mxfile host="65bd71144e">
    <diagram name="Page-1" id="SBVT8DD8Xot-n1D4VR2F">
        <mxGraphModel dx="445" dy="371" grid="1" gridSize="10" guides="1" tooltips="1" connect="1" arrows="1" fold="1" page="1" pageScale="1" pageWidth="850" pageHeight="1100" math="0" shadow="0">
            <root>
                <mxCell id="0"/>
                <mxCell id="1" parent="0"/>
                <mxCell id="9" style="edgeStyle=none;html=1;exitX=0.5;exitY=1;exitDx=0;exitDy=0;entryX=0.5;entryY=0;entryDx=0;entryDy=0;" parent="1" source="-8u4ou603Z0xN7fmYHnL-1" target="-8u4ou603Z0xN7fmYHnL-2" edge="1">
                    <mxGeometry relative="1" as="geometry"/>
                </mxCell>
                <mxCell id="16" style="edgeStyle=orthogonalEdgeStyle;html=1;exitX=1;exitY=0.25;exitDx=0;exitDy=0;entryX=0;entryY=0.5;entryDx=0;entryDy=0;rounded=0;curved=0;startArrow=classic;startFill=1;" edge="1" parent="1" source="-8u4ou603Z0xN7fmYHnL-1" target="-8u4ou603Z0xN7fmYHnL-4">
                    <mxGeometry relative="1" as="geometry">
                        <Array as="points">
                            <mxPoint x="430" y="215"/>
                            <mxPoint x="430" y="130"/>
                        </Array>
                    </mxGeometry>
                </mxCell>
                <mxCell id="17" style="edgeStyle=none;html=1;exitX=1;exitY=0.5;exitDx=0;exitDy=0;entryX=0;entryY=0.5;entryDx=0;entryDy=0;startArrow=classic;startFill=1;" edge="1" parent="1" source="-8u4ou603Z0xN7fmYHnL-1" target="-8u4ou603Z0xN7fmYHnL-5">
                    <mxGeometry relative="1" as="geometry"/>
                </mxCell>
                <mxCell id="18" style="edgeStyle=orthogonalEdgeStyle;html=1;exitX=1;exitY=0.75;exitDx=0;exitDy=0;entryX=0;entryY=0.5;entryDx=0;entryDy=0;rounded=0;startArrow=classic;startFill=1;" edge="1" parent="1" source="-8u4ou603Z0xN7fmYHnL-1" target="2">
                    <mxGeometry relative="1" as="geometry">
                        <Array as="points">
                            <mxPoint x="430" y="245"/>
                            <mxPoint x="430" y="330"/>
                        </Array>
                    </mxGeometry>
                </mxCell>
                <mxCell id="-8u4ou603Z0xN7fmYHnL-1" value="&lt;u&gt;&lt;font color=&quot;#000000&quot;&gt;Customer Frontend&lt;/font&gt;&lt;br&gt;&lt;/u&gt;&lt;span style=&quot;background-color: transparent; color: light-dark(rgb(0, 0, 0), rgb(255, 255, 255));&quot;&gt;- Ask Chatbot about delivery status &amp;amp; info&lt;/span&gt;" style="rounded=0;whiteSpace=wrap;html=1;align=center;" parent="1" vertex="1">
                    <mxGeometry x="250" y="200" width="120" height="60" as="geometry"/>
                </mxCell>
                <mxCell id="-8u4ou603Z0xN7fmYHnL-8" style="edgeStyle=orthogonalEdgeStyle;rounded=0;orthogonalLoop=1;jettySize=auto;html=1;exitX=0;exitY=0.5;exitDx=0;exitDy=0;entryX=0;entryY=0.5;entryDx=0;entryDy=0;" parent="1" source="-8u4ou603Z0xN7fmYHnL-2" target="-8u4ou603Z0xN7fmYHnL-2" edge="1">
                    <mxGeometry relative="1" as="geometry"/>
                </mxCell>
                <mxCell id="7" style="edgeStyle=none;html=1;exitX=0.5;exitY=0;exitDx=0;exitDy=0;entryX=0.5;entryY=1;entryDx=0;entryDy=0;" parent="1" source="-8u4ou603Z0xN7fmYHnL-2" target="-8u4ou603Z0xN7fmYHnL-1" edge="1">
                    <mxGeometry relative="1" as="geometry"/>
                </mxCell>
                <mxCell id="-8u4ou603Z0xN7fmYHnL-2" value="Customer Support (RAG)" style="rounded=0;whiteSpace=wrap;html=1;fillColor=#fff2cc;strokeColor=#d6b656;" parent="1" vertex="1">
                    <mxGeometry x="250" y="360" width="120" height="60" as="geometry"/>
                </mxCell>
                <mxCell id="-8u4ou603Z0xN7fmYHnL-4" value="Order Service" style="rounded=0;whiteSpace=wrap;html=1;fillColor=#fff2cc;strokeColor=#d6b656;" parent="1" vertex="1">
                    <mxGeometry x="514" y="100" width="120" height="60" as="geometry"/>
                </mxCell>
                <mxCell id="-8u4ou603Z0xN7fmYHnL-5" value="Driver Service" style="rounded=0;whiteSpace=wrap;html=1;fillColor=#fff2cc;strokeColor=#d6b656;" parent="1" vertex="1">
                    <mxGeometry x="514" y="200" width="120" height="60" as="geometry"/>
                </mxCell>
                <mxCell id="-8u4ou603Z0xN7fmYHnL-17" value="&lt;span style=&quot;background-color: transparent; color: light-dark(rgb(0, 0, 0), rgb(255, 255, 255));&quot;&gt;1. Provide CS (RAG) with prompt&lt;/span&gt;" style="text;html=1;align=left;verticalAlign=middle;resizable=0;points=[];autosize=1;strokeColor=none;fillColor=none;" parent="1" vertex="1">
                    <mxGeometry x="120" y="270" width="200" height="30" as="geometry"/>
                </mxCell>
                <mxCell id="-8u4ou603Z0xN7fmYHnL-19" value="3. Check user ID" style="text;html=1;align=left;verticalAlign=middle;resizable=0;points=[];autosize=1;strokeColor=none;fillColor=none;" parent="1" vertex="1">
                    <mxGeometry x="644" y="100" width="110" height="30" as="geometry"/>
                </mxCell>
                <mxCell id="-8u4ou603Z0xN7fmYHnL-26" value="4. Return order record/s" style="text;html=1;align=left;verticalAlign=middle;resizable=0;points=[];autosize=1;strokeColor=none;fillColor=none;" parent="1" vertex="1">
                    <mxGeometry x="644" y="130" width="150" height="30" as="geometry"/>
                </mxCell>
                <mxCell id="-8u4ou603Z0xN7fmYHnL-27" value="5. Check order ID" style="text;html=1;align=left;verticalAlign=middle;resizable=0;points=[];autosize=1;strokeColor=none;fillColor=none;" parent="1" vertex="1">
                    <mxGeometry x="644" y="200" width="120" height="30" as="geometry"/>
                </mxCell>
                <mxCell id="-8u4ou603Z0xN7fmYHnL-28" value="6. Return driver info" style="text;html=1;align=left;verticalAlign=middle;resizable=0;points=[];autosize=1;strokeColor=none;fillColor=none;" parent="1" vertex="1">
                    <mxGeometry x="644" y="230" width="130" height="30" as="geometry"/>
                </mxCell>
                <mxCell id="-8u4ou603Z0xN7fmYHnL-31" value="&lt;span style=&quot;background-color: transparent; color: light-dark(rgb(0, 0, 0), rgb(255, 255, 255));&quot;&gt;2. Return list of APIs to call&lt;/span&gt;" style="text;html=1;align=left;verticalAlign=middle;resizable=0;points=[];autosize=1;strokeColor=none;fillColor=none;" parent="1" vertex="1">
                    <mxGeometry x="120" y="295" width="170" height="30" as="geometry"/>
                </mxCell>
                <mxCell id="2" value="Invoice Service" style="rounded=0;whiteSpace=wrap;html=1;fillColor=#fff2cc;strokeColor=#d6b656;" parent="1" vertex="1">
                    <mxGeometry x="514" y="300" width="120" height="60" as="geometry"/>
                </mxCell>
                <mxCell id="3" value="7. Check order ID&lt;div&gt;&lt;font color=&quot;#000000&quot;&gt;&lt;br&gt;&lt;/font&gt;&lt;div&gt;8. Return invoice&lt;/div&gt;&lt;/div&gt;" style="text;html=1;align=left;verticalAlign=middle;resizable=0;points=[];autosize=1;strokeColor=none;fillColor=none;" parent="1" vertex="1">
                    <mxGeometry x="649" y="300" width="120" height="60" as="geometry"/>
                </mxCell>
                <mxCell id="11" value="&lt;h5&gt;&lt;font style=&quot;font-size: 15px;&quot; face=&quot;Lucida Console&quot;&gt;&lt;i&gt;HTTP Get&lt;/i&gt;&lt;/font&gt;&lt;/h5&gt;" style="text;html=1;align=left;verticalAlign=middle;whiteSpace=wrap;rounded=0;" parent="1" vertex="1">
                    <mxGeometry x="320" y="300" width="100" height="30" as="geometry"/>
                </mxCell>
                <mxCell id="12" value="&lt;h5&gt;&lt;font style=&quot;font-size: 15px;&quot; face=&quot;Lucida Console&quot;&gt;&lt;i&gt;HTTP Get&lt;/i&gt;&lt;/font&gt;&lt;/h5&gt;" style="text;html=1;align=left;verticalAlign=middle;whiteSpace=wrap;rounded=0;" parent="1" vertex="1">
                    <mxGeometry x="440" y="230" width="80" height="30" as="geometry"/>
                </mxCell>
                <mxCell id="13" value="" style="rounded=0;whiteSpace=wrap;html=1;strokeWidth=5;perimeterSpacing=6;" parent="1" vertex="1">
                    <mxGeometry x="609" y="400" width="190" height="118" as="geometry"/>
                </mxCell>
                <mxCell id="14" value="" style="rounded=0;whiteSpace=wrap;html=1;fillColor=#fff2cc;strokeColor=#d6b656;" parent="1" vertex="1">
                    <mxGeometry x="625" y="440" width="65" height="40" as="geometry"/>
                </mxCell>
                <mxCell id="15" value="Microservice" style="text;whiteSpace=wrap;align=left;fontColor=#000000;labelBackgroundColor=none;" parent="1" vertex="1">
                    <mxGeometry x="699.5" y="447.75" width="73" height="24.5" as="geometry"/>
                </mxCell>
                <mxCell id="19" value="&lt;h5&gt;&lt;font style=&quot;font-size: 15px;&quot; face=&quot;Lucida Console&quot;&gt;&lt;i&gt;HTTP Get&lt;/i&gt;&lt;/font&gt;&lt;/h5&gt;" style="text;html=1;align=left;verticalAlign=middle;whiteSpace=wrap;rounded=0;" vertex="1" parent="1">
                    <mxGeometry x="440" y="330" width="80" height="30" as="geometry"/>
                </mxCell>
                <mxCell id="20" value="&lt;h5&gt;&lt;font style=&quot;font-size: 15px;&quot; face=&quot;Lucida Console&quot;&gt;&lt;i&gt;HTTP Get&lt;/i&gt;&lt;/font&gt;&lt;/h5&gt;" style="text;html=1;align=left;verticalAlign=middle;whiteSpace=wrap;rounded=0;" vertex="1" parent="1">
                    <mxGeometry x="440" y="130" width="80" height="30" as="geometry"/>
                </mxCell>
            </root>
        </mxGraphModel>
    </diagram>
</mxfile>